<svg width="706" height="92" viewBox="0 0 706 92" fill="none" xmlns="http://www.w3.org/2000/svg">
<path d="M694.389 3.60938H705.717L679.893 91.2574H668.565L694.389 3.60938Z" fill="white"/>
<path d="M622.222 31.0633C625.582 36.1513 631.054 40.2793 635.95 43.3513L629.614 50.6473C625.87 47.2873 622.798 42.7753 620.686 38.0713V52.1833H611.278V39.2233C608.398 43.3513 604.174 47.7673 598.51 51.3193L595.918 47.8633C601.294 43.1593 605.614 37.1113 608.398 31.0633H601.582V25.6873H611.278V22.1353C608.11 22.4233 604.846 22.6153 601.39 22.7113L600.91 18.4873C609.838 17.1433 616.366 15.1273 623.758 11.4793H595.246L600.142 18.3913C597.07 19.3513 594.094 20.0233 591.022 20.5993V25.6873H599.374V31.0633H591.022V32.3113C595.054 33.6553 598.222 35.1913 601.774 37.3993L596.878 43.8313C594.958 41.7193 593.038 39.6073 591.022 37.6873V52.0873H581.71V40.5673C578.926 44.5033 575.086 48.0553 570.958 51.2233L568.462 48.2473C567.022 69.8473 562.606 82.2313 555.31 91.1593L551.182 88.3754C555.982 77.6234 557.422 64.1833 557.422 33.9433V5.52734H633.838V11.4793H625.102L630.67 18.4873C627.406 19.4473 624.142 20.3113 620.686 20.8873V25.6873H631.63V31.0633H622.222ZM570.862 18.2953C579.31 16.9513 587.278 14.9353 594.19 11.4793H568.942V31.5433C568.942 37.3033 568.75 42.5833 568.462 47.3833C572.398 43.4473 576.718 37.7833 579.406 31.0633H571.054V25.6873H581.71V21.9433C578.35 22.2313 574.99 22.4233 571.534 22.5193L570.862 18.2953ZM575.086 90.2953V54.3913H626.83V90.1993H615.118V84.4393H586.702V90.2953H575.086ZM586.702 60.0553V66.4873H615.118V60.0553H586.702ZM586.702 72.0553V78.8714H615.118V72.0553H586.702Z" fill="white"/>
<path d="M540.622 54.7744V60.7264H532.27V77.6224H519.694V72.1504H504.718V80.3104C504.718 91.9264 492.91 95.1904 474.574 86.1664L475.63 81.4624C490.51 83.3824 492.046 82.5184 492.046 76.6624V72.1504H463.438V66.5824H492.046V60.7264H455.758V54.7744H492.046V49.3984H465.166V43.8304H492.046V38.7424H465.742V20.7904H492.046V15.8944H456.91V9.94244H492.046V1.39844H504.718V9.94244H539.278V15.8944H504.718V20.7904H530.734V38.7424H504.718V43.8304H532.27V54.7744H540.622ZM478.03 33.5584H492.046V25.9744H478.03V33.5584ZM518.446 25.9744H504.718V33.5584H518.446V25.9744ZM504.718 49.3984V54.7744H519.694V49.3984H504.718ZM519.694 66.5824V60.7264H504.718V66.5824H519.694Z" fill="white"/>
<path d="M391.342 6.20082C384.142 17.7208 373.966 27.8008 362.734 34.2328L359.758 30.1048C368.59 21.6568 375.694 10.4248 380.014 0.632812L391.342 6.20082ZM441.166 7.92881V14.2648H399.886V7.92881H441.166ZM384.238 20.5048L395.278 26.2648C392.206 31.7368 388.462 36.8248 384.43 41.4328V90.8728H372.334V53.1448C368.398 56.3128 364.462 59.0968 360.814 61.1128L357.934 56.6008C368.686 47.4808 377.806 34.2328 384.238 20.5048ZM445.582 32.3128V38.6488H429.934V79.5448C429.934 91.5448 419.182 95.3848 400.366 86.3608L401.614 81.0808C415.918 83.0008 417.454 82.1368 417.454 76.0888V38.6488H395.566V32.3128H445.582Z" fill="white"/>
<path d="M320.59 19.7379H346.606C346.51 46.6179 346.126 64.2819 344.878 77.9139C343.534 92.6979 330.382 95.0019 312.238 83.8659L313.678 79.1619C330.766 82.6179 332.494 81.4659 333.166 74.0739C334.126 62.5539 334.606 48.0579 334.606 25.6899H318.286C315.118 33.3699 310.798 41.2419 305.326 47.5779L302.062 45.0819V87.8019H290.542V79.6419H278.926V89.5299H267.31V19.7379H278.254C279.214 13.6899 280.078 6.39387 280.462 0.921875L294.094 3.32187C291.79 8.88988 288.43 15.0339 285.166 19.7379H302.062V42.8739C307.438 30.7779 310.606 13.2099 311.95 1.11387L325.102 3.32187C324.334 7.64187 322.798 13.4979 320.59 19.7379ZM290.542 45.0819V25.6899H278.926V45.0819H290.542ZM332.206 58.6179L321.07 64.7619C318.382 56.5059 314.446 47.1939 311.086 40.3779L315.31 37.2099C321.55 42.7779 328.558 51.5139 332.206 58.6179ZM278.926 73.6899H290.542V50.9379H278.926V73.6899Z" fill="white"/>
<path d="M251.086 61.3058C255.31 81.0818 254.254 93.5618 241.486 90.2978C233.422 88.2818 227.566 82.6178 223.438 74.8418C215.086 81.8498 205.102 87.1298 193.39 90.0098L191.47 85.0178C202.894 80.5058 212.014 73.7858 219.31 65.3378C215.47 53.9138 213.934 39.9938 213.454 26.5538H186.862V38.4578H209.614C209.518 52.3778 209.23 60.2498 208.558 66.8738C207.598 75.8978 197.518 78.9698 185.614 71.1938L186.766 66.4898C195.886 68.3138 196.942 67.5458 197.23 63.7058C197.614 59.0978 197.806 53.5298 197.902 44.4098H186.862C186.766 70.6178 180.814 82.8098 169.966 91.7378L166.222 88.2818C172.174 78.6818 174.382 71.3858 174.382 43.5458V20.1218H213.262C213.166 14.3618 213.07 8.21775 213.07 2.36175H225.166C225.166 8.31375 225.166 14.4578 225.262 20.1218H238.798C235.246 14.9377 231.31 9.36975 228.046 5.24175L231.598 1.59375C237.55 4.85775 243.886 9.56175 248.59 14.2658L241.774 20.1218H252.334V26.5538H225.454C225.838 35.3858 226.798 44.2178 228.43 52.0898C231.886 45.8498 234.766 39.0338 237.07 31.6418L248.878 35.7698C245.326 46.7138 239.854 56.8898 232.558 65.6258C235.054 71.3858 238.222 75.6098 242.254 77.3378C245.422 78.6818 245.998 76.2818 245.902 61.3058H251.086Z" fill="white"/>
<path d="M90.7656 23.3841C86.8296 17.4321 81.2616 10.1361 77.5176 5.43209L80.7816 1.49609C86.4456 4.18409 94.7976 9.94409 99.9816 14.6481L90.7656 23.3841ZM96.9096 91.0641V23.1921H118.51V2.2641H131.086V23.1921H152.686V90.7761H140.782V84.0561H108.814V91.0641H96.9096ZM85.7736 45.0801C81.3576 39.2241 75.5016 32.3121 71.1816 27.6081L74.0616 23.4801C80.5896 26.4561 88.0776 30.7761 94.0296 35.5761L85.7736 45.0801ZM108.814 48.4401H118.798V29.3361H108.814V48.4401ZM130.99 48.4401H140.782V29.3361H130.99V48.4401ZM84.5256 88.8561L71.6616 82.2321C77.5176 73.0161 84.1416 59.7681 89.5176 47.1921L94.0296 48.9201C91.5336 62.5521 87.7896 80.0241 84.5256 88.8561ZM108.814 77.9121H118.798V54.3921H108.814V77.9121ZM130.99 77.9121H140.782V54.3921H130.99V77.9121Z" fill="white"/>
<path d="M11.9999 3.60938L38.8799 91.2574H27.5519L0.671875 3.60938H11.9999Z" fill="white"/>
</svg>
