<svg width="192" height="96" viewBox="0 0 192 96" fill="none" xmlns="http://www.w3.org/2000/svg">
<path d="M184.992 62.3058C189.216 82.0818 188.16 94.5618 175.392 91.2978C167.328 89.2818 161.472 83.6178 157.344 75.8418C148.992 82.8498 139.008 88.1298 127.296 91.0098L125.376 86.0178C136.8 81.5058 145.92 74.7858 153.216 66.3378C149.376 54.9138 147.84 40.9938 147.36 27.5538H120.768V39.4578H143.52C143.424 53.3778 143.136 61.2498 142.464 67.8738C141.504 76.8978 131.424 79.9698 119.52 72.1938L120.672 67.4898C129.792 69.3138 130.848 68.5458 131.136 64.7058C131.52 60.0978 131.712 54.5298 131.808 45.4098H120.768C120.672 71.6178 114.72 83.8098 103.872 92.7378L100.128 89.2818C106.08 79.6818 108.288 72.3858 108.288 44.5458V21.1218H147.168C147.072 15.3618 146.976 9.21775 146.976 3.36175H159.072C159.072 9.31375 159.072 15.4578 159.168 21.1218H172.704C169.152 15.9377 165.216 10.3698 161.952 6.24175L165.504 2.59375C171.456 5.85775 177.792 10.5618 182.496 15.2658L175.68 21.1218H186.24V27.5538H159.36C159.744 36.3858 160.704 45.2178 162.336 53.0898C165.792 46.8498 168.672 40.0338 170.976 32.6418L182.784 36.7698C179.232 47.7138 173.76 57.8898 166.464 66.6258C168.96 72.3858 172.128 76.6098 176.16 78.3378C179.328 79.6818 179.904 77.2818 179.808 62.3058H184.992Z" fill="white"/>
<path d="M24.6719 24.3841C20.7359 18.4321 15.1679 11.1361 11.4239 6.43209L14.6879 2.49609C20.3519 5.18409 28.7039 10.9441 33.8879 15.6481L24.6719 24.3841ZM30.8159 92.0641V24.1921H52.4159V3.2641H64.9919V24.1921H86.5919V91.7761H74.6879V85.0561H42.7199V92.0641H30.8159ZM19.6799 46.0801C15.2639 40.2241 9.40789 33.3121 5.08789 28.6081L7.96789 24.4801C14.4959 27.4561 21.9839 31.7761 27.9359 36.5761L19.6799 46.0801ZM42.7199 49.4401H52.7039V30.3361H42.7199V49.4401ZM64.8959 49.4401H74.6879V30.3361H64.8959V49.4401ZM18.4319 89.8561L5.56789 83.2321C11.4239 74.0161 18.0479 60.7681 23.4239 48.1921L27.9359 49.9201C25.4399 63.5521 21.6959 81.0241 18.4319 89.8561ZM42.7199 78.9121H52.7039V55.3921H42.7199V78.9121ZM64.8959 78.9121H74.6879V55.3921H64.8959V78.9121Z" fill="white"/>
</svg>
