<svg width="166" height="88" viewBox="0 0 166 88" fill="none" xmlns="http://www.w3.org/2000/svg">
<g clip-path="url(#clip0_2486_38)">
<path d="M89.5871 85.248C91.4111 68.256 94.1951 37.152 95.9231 17.184H93.1391C91.3151 17.184 90.0671 16.512 89.9711 14.88C89.8751 13.728 90.4511 13.152 92.0831 13.152H127.411L127.219 3.36C127.219 1.056 127.411 0 130.003 0C133.939 0 140.371 2.688 134.323 4.512L134.515 13.152H142.675C142.867 10.944 143.539 9.312 145.363 9.312C148.051 9.312 151.507 12.672 151.507 14.976C151.507 16.512 150.067 17.184 147.859 17.184H134.803C135.859 33.12 138.451 45.216 141.715 54.528C145.747 47.232 149.011 39.744 151.411 31.68C151.987 29.76 152.755 29.184 155.251 30.048C159.859 31.776 163.027 35.904 158.131 35.616C154.867 44.736 150.163 53.664 144.595 61.824C147.859 68.928 151.411 73.632 154.483 76.512C157.075 78.912 158.707 79.392 159.667 77.76L162.931 72.576C163.987 70.944 166.291 72.192 165.523 73.92L162.835 80.352C165.139 82.944 164.371 87.168 159.571 87.168C153.811 87.168 146.227 81.024 139.795 68.352C134.131 75.456 127.699 81.696 121.363 85.824C119.155 87.264 118.195 86.208 119.923 84.288C126.355 77.184 132.115 69.888 137.011 62.304C132.403 51.072 128.851 36.288 127.603 17.184H104.659C105.331 18.048 105.043 19.104 103.027 19.584L101.299 36H115.987C116.467 34.56 117.331 33.408 118.963 33.408C121.555 33.408 125.491 36.768 125.491 39.168C125.491 40.224 124.627 41.088 123.283 41.472C123.283 53.088 122.323 64.512 120.787 69.408C119.251 74.304 115.987 76.8 113.107 76.8C110.803 76.8 109.459 75.072 109.651 72.672L105.811 71.808C104.659 71.52 103.987 70.944 103.987 69.984C103.987 69.216 104.563 69.12 105.811 69.12H111.475C113.011 69.12 113.491 68.928 114.067 67.2C115.507 62.88 116.179 52.128 116.563 40.032H100.819C98.7071 56.832 95.5391 76.128 91.5071 85.728C90.5471 88.032 89.2991 87.936 89.5871 85.248ZM148.243 3.936C147.187 2.496 147.571 2.016 149.587 2.592C156.883 4.704 163.027 9.6 163.891 14.112C164.371 16.608 163.123 18.72 161.299 19.104C159.475 19.488 158.323 17.856 157.075 16.128L148.243 3.936Z" fill="black"/>
<path d="M27.6292 12.192C29.3572 12.192 31.8532 13.536 33.2932 14.88H46.9252V2.592C46.9252 0.575998 47.4052 0 49.6132 0C54.8932 0 58.5412 3.168 53.5492 4.896V14.88H68.0452C68.4292 13.536 69.1972 12.384 70.5412 12.384C72.7492 12.384 76.5892 15.456 76.5892 18.048C76.5892 19.2 75.8212 19.872 74.8612 20.16L74.1892 83.136C74.1892 85.44 71.9812 86.784 69.5812 86.784C67.5652 86.784 67.3732 85.44 67.3732 83.136V81.408H33.5812V83.616C33.5812 85.92 31.2772 87.264 29.1652 87.264C27.0532 87.264 26.7652 85.92 26.7652 83.616L26.0932 14.784C26.0932 13.056 26.3812 12.192 27.6292 12.192ZM59.1172 41.088C59.2132 39.552 59.6932 38.112 61.1332 38.112C63.1492 38.112 66.0292 40.8 66.0292 43.104C66.0292 44.544 64.8772 45.12 62.2852 45.12H53.5492V77.376H67.4692L68.2372 18.912H53.5492V41.088H59.1172ZM10.4452 86.208C8.52515 86.208 7.94915 85.152 7.94915 82.752C7.94915 75.36 5.83715 66.72 2.38115 57.792C1.90115 56.544 1.51715 55.584 2.28515 55.104C3.05315 54.624 3.91715 55.296 4.78115 56.256C6.31715 57.984 7.75715 59.904 8.90915 61.632L18.6052 39.744C18.9892 38.784 19.4692 38.4 20.1412 38.688C20.8132 38.976 21.0052 39.552 20.7172 40.512L13.3252 66.528C12.9412 67.872 12.8452 68.16 13.2292 69.312C14.6692 73.728 15.8212 78.048 15.8212 80.448C15.8212 84.096 13.1332 86.208 10.4452 86.208ZM6.89315 3.168C5.74115 1.824 6.12515 1.152 7.94915 1.632C14.4772 3.36 21.2932 7.2 22.2532 11.04C22.8292 13.44 21.1972 16.32 19.3732 16.704C18.1252 16.992 17.2612 16.032 16.0132 14.4C12.6532 9.984 9.67715 6.432 6.89315 3.168ZM0.653154 22.752C-0.498847 21.408 -0.114846 20.736 1.70915 21.216C8.14115 22.944 14.7652 26.592 15.6292 30.24C16.2052 32.544 14.7652 35.424 12.9412 35.808C11.6932 36.096 10.7332 35.136 9.58115 33.696C6.22115 29.472 3.34115 25.92 0.653154 22.752ZM32.7172 18.912L33.0052 41.088H46.9252V18.912H32.7172ZM33.1012 45.12L33.4852 77.376H46.9252V45.12H33.1012Z" fill="black"/>
</g>
<defs>
<clipPath id="clip0_2486_38">
<rect width="165.677" height="87.3662" fill="white"/>
</clipPath>
</defs>
</svg>
